<svg  viewBox="0 0 315 138" fill="none" xmlns="http://www.w3.org/2000/svg">
<path fill-rule="evenodd" clip-rule="evenodd" d="M40.0539 21.099C40.5455 36.5366 40.3924 36.7713 28.4246 39.0184C24.2162 39.8082 22.6936 39.4048 19.8716 36.7516C16.0565 33.1666 15.4005 34.9584 18.4023 40.7638C21.8592 47.4532 25.951 50.0966 33.053 50.2301L39.6156 50.3538V55.8233C39.6156 60.9795 39.3234 61.3547 34.5223 62.3525C31.7214 62.9343 25.6097 65.6508 20.9419 68.3884C16.2742 71.1246 11.4913 73.3647 10.3156 73.3647C9.13851 73.3647 7.82374 73.9353 7.39251 74.6337C6.23787 76.5042 20.4202 91.6127 20.9939 92.1259C21.5677 92.639 21.5488 92.726 21.5488 92.726C22.1738 93.2938 26.0971 98.6607 30.6257 98.6607C42.6722 98.6607 50.0607 89.5597 50.1197 74.6534C50.1366 70.3376 50.4821 66.4758 50.8867 66.071C52.297 64.6587 58.1657 66.605 62.1999 69.8233L66.265 73.0668L63.8265 78.1822C60.2685 85.6459 60.6561 89.9546 65.0654 91.9643C68.3692 93.4708 69.0799 93.2473 72.0887 89.7481C74.4373 87.0161 75.4347 84.138 75.4347 80.0948C75.4347 75.2211 74.5862 73.5277 69.9213 69.0883C66.2973 65.6382 61.9667 63.2154 57.2793 62.0138C51.051 60.416 50.1478 59.7302 50.131 56.5864C50.1211 54.6063 49.7601 51.6734 49.3289 50.0671C48.6687 47.6064 49.9554 46.454 57.5265 42.7242C62.4668 40.2916 67.584 37.1113 68.8987 35.6582C71.2024 33.7923 72.6253 33.7388 72.6253 29.3342C72.6253 28.1959 70.6967 26.591 68.3411 25.7689C64.887 24.5645 62.6957 24.8105 57.0518 27.0365C53.1988 28.5571 49.5101 29.7994 48.8555 29.7994C48.201 29.7994 47.2247 26.1638 46.6881 21.7187C45.7667 14.1075 42.9152 7.31831 40.6368 7.31128C40.0749 7.30987 39.8137 13.5144 40.0539 21.099ZM75.4347 16.897C75.4347 18.5947 78.0993 20.5748 79.0742 19.6009C79.4267 19.2468 78.7525 18.1576 77.5754 17.1795C76.2409 16.0707 75.4347 15.9639 75.4347 16.897ZM182.997 24.9861C183.539 27.2473 184.483 30.0791 185.096 31.2806C186.762 34.5536 185.016 36.1332 177.416 38.2244L170.538 40.1188L173.809 42.7692C175.975 44.5231 178.764 45.2735 182.059 44.9868C185.729 44.6692 187.154 45.1456 187.484 46.8039C187.8 48.3849 185.385 50.1584 179.351 52.7766C174.63 54.8256 169.717 56.5007 168.434 56.5007C166.599 56.5007 166.883 57.2849 169.765 60.1686C173.429 63.8323 173.437 63.8337 180.879 61.6513C188.916 59.2945 190.618 59.5742 190.619 63.259C190.62 66.5025 198.34 82.6005 200.55 83.9665C201.863 84.7788 202.053 84.36 201.271 82.3785C199.923 78.9621 196.292 62.1459 196.26 59.1694C196.247 57.9327 199.409 54.9478 203.288 52.5349C211.345 47.5235 213.044 44.6088 209.8 41.3611C207.707 39.2685 207.096 39.3318 202.042 42.1734C199.024 43.8696 195.851 45.2581 194.992 45.2581C193.277 45.2581 192.774 41.0702 194.48 40.9971C195.059 40.9732 196.795 39.9993 198.336 38.8343C200.741 37.0158 200.841 36.5267 199.039 35.387C197.884 34.6562 195.525 34.0491 193.796 34.0365C191.591 34.0224 190.087 32.6564 188.746 29.4481C187.697 26.9353 185.753 23.9799 184.426 22.8781C182.215 21.0442 182.095 21.2199 182.997 24.9861ZM222.925 26.0303C222.925 26.2762 225.137 28.9646 227.84 32.003L232.755 37.5287L232.756 33.2425C232.758 28.1313 230.562 25.5834 226.156 25.5834C224.379 25.5834 222.925 25.7844 222.925 26.0303ZM287.54 26.3535C287.54 26.7765 289.259 28.6035 291.362 30.4121C294.984 33.5292 295.211 34.4637 295.725 48.3484C296.365 65.6635 294.823 76.8977 288.082 104.007C283.046 124.259 282.691 131.846 287.049 126.065C296.878 113.027 302.061 92.3226 302.176 65.6354C302.273 43.3805 300.644 35.6667 294.557 29.5774C290.932 25.9502 287.54 24.3917 287.54 26.3535ZM218.711 30.5021C220.526 32.4344 222.643 34.0154 223.415 34.0154C224.188 34.0154 223.335 32.4344 221.52 30.5021C219.705 28.5697 217.589 26.9887 216.816 26.9887C216.043 26.9887 216.896 28.5697 218.711 30.5021ZM96.6339 31.2244C96.7168 33.1455 96.3375 47.0499 95.7911 62.122C94.9652 84.9081 95.1379 89.9701 96.8165 92.1652C98.6904 94.6133 99.0738 94.172 102.098 86.0787C105.162 77.8842 105.308 76.0629 104.489 56.1128C103.654 35.7974 103.462 34.7153 100.049 31.3017L96.4808 27.7322L96.6339 31.2244ZM245.4 35.7299C245.4 36.0068 246.664 38.712 248.209 41.7447C250.455 46.1533 251.018 50.032 251.018 61.106C251.018 74.1278 252.354 80.3914 255.13 80.3914C255.793 80.3914 256.775 74.2233 257.314 66.6837C258.452 50.7782 256.312 43.0039 249.453 38.1176C247.224 36.5295 245.4 35.4545 245.4 35.7299ZM121.106 46.5116L115.507 47.3661L119.701 50.6616C122.977 53.2347 125.062 53.8025 129.218 53.2474C132.145 52.8567 135.507 51.7352 136.688 50.7543C138.575 49.1874 138.441 48.7531 135.58 47.1651C132.12 45.2454 130.024 45.1498 121.106 46.5116ZM38.9133 71.3199C38.9133 79.8738 18.4427 84.2513 31.5388 73.5488C37.5255 68.654 38.9133 68.2352 38.9133 71.3199ZM139.36 78.601C131.029 81.5142 128.524 81.8346 122.849 80.7118C116.952 79.5453 116.368 79.6395 117.92 81.5128C120.765 84.9432 128.207 87.418 135.682 87.418C141.19 87.418 143.619 86.6156 147.316 83.5758C152.913 78.9734 154.138 77.3797 153.218 75.8915C152.262 74.3414 150.615 74.6632 139.36 78.601ZM176.265 88.6013C183.013 94.4784 197.337 101.471 202.63 101.471C208.041 101.471 214.497 94.914 214.497 89.4178C214.497 85.1976 214.408 85.2018 207.887 89.6427C201.873 93.7378 196.878 93.6015 186.176 89.0482C182.824 87.6218 178.186 86.0352 175.868 85.5208L171.654 84.5849L176.265 88.6013Z" fill="black"/>
<path d="M33.8809 91.8477H35.7123" stroke="black"/>
</svg>
