<svg  viewBox="0 0 100 100" fill="none" xmlns="http://www.w3.org/2000/svg">
<path d="M48.4135 8C49.3925 9.584 50.9135 9.163 50.9135 7.309C50.9135 6.379 52.5205 8.291 54.4835 11.559C56.4475 14.826 58.8885 18.4 59.9075 19.5C62.4765 22.272 68.7085 33.483 71.0255 39.5C77.8225 57.152 78.5495 72.094 73.0855 81.799C71.7695 84.136 68.8725 84.391 64.6385 82.542C63.5995 82.088 59.3635 82.645 54.4245 83.883C43.3215 86.668 36.7515 86.603 30.4015 83.646C24.8725 81.072 21.1125 76.774 17.3845 68.766C14.6735 62.942 14.3255 58.696 16.0795 52.841C17.4175 48.374 22.5875 41.987 25.1545 41.628C26.9275 41.381 45.8655 14.557 45.8965 12.25C45.9235 10.267 47.7144 10.799 48.4124 12.997C48.7614 14.095 48.0565 17.806 46.8445 21.247C44.6325 27.53 42.6035 31.608 29.8515 55.401L22.9375 68.303L25.0225 71.676C26.1685 73.531 28.3555 75.694 29.8805 76.483C33.6055 78.409 45.9135 79.68 45.9135 78.138C45.9135 77.512 45.5035 77 45.0025 77C42.7805 77 39.8835 68.254 40.0025 61.903C40.0685 58.381 39.9865 55.05 39.8195 54.5C39.6535 53.95 39.8275 52.6 40.2055 51.5C40.7805 49.831 41.9445 49.449 47.2385 49.194C53.0525 48.913 53.8385 49.128 56.6595 51.762C60.3945 55.252 61.6655 61.698 60.2055 69.752C59.1025 75.839 59.7884 76.758 64.1884 75.085C69.0704 73.23 70.2705 69.94 69.6365 60.155C69.0875 51.683 68.8095 50.875 60.9915 35.096C56.5485 26.128 52.9135 18.197 52.9135 17.472C52.9135 16.747 51.3415 14.094 49.4205 11.577C47.4985 9.059 46.3475 7 46.8615 7C47.3745 7 48.0735 7.45 48.4135 8Z" fill="black"/>
</svg>
